:SAMPLES-PER-SECOND 30
:FULLY-SPECIFIED
:DEGREES
802
root  -13.4951 24.4869 0.823754 150.187 -55.9238 135.414
RightUpLeg  9.27745 23.815 8.59238
RightLeg  99.9138 1.68254 -6.34266
RightFoot  -31.7131 0.206942 2.35467
RightToes  3.49245e-010 0 -3.6325e-017
Spine  132.341 31.5504 3.89632
Spine1  5.43456 18.1116 13.9941
HEad  -45.8515 -1.91006 -9.1979
LeftShoulder1  0.508171 -3.31328 1.14164
LeftArm  -57.3507 -23.5605 -25.7626
LeftForeArm  34.6486 -77.629 -68.5928
LeftHand  -0.252424 0.820675 6.38146
RightShoulder  -0.0531246 0.480819 -11.2746
RightArm  -65.8872 29.9305 7.65568
RightForeArm  30.5164 77.7874 85.1604
RightHand  -0.346406 0.964295 -6.44726
LeftUpLeg  34.947 11.0396 38.7531
LeftLeg  96.4415 3.04312 -21.1947
LeftFoot  -19.781 -0.599952 -9.74961
LeftToes  -2.21735e-009 9.83027e-011 -4.04511e-011
803
root  -13.972 24.9398 0.997812 154.937 -59.7675 134.048
RightUpLeg  6.50797 21.7783 2.84232
RightLeg  99.2882 1.38976 -5.28554
RightFoot  -32.0743 0.296747 2.81398
RightToes  3.49245e-010 0 -3.6325e-017
Spine  129.575 24.3689 3.01842
Spine1  1.3875 14.6397 12.9423
HEad  -41.721 -2.87092 -10.2789
LeftShoulder1  0.591315 -4.21949 0.861515
LeftArm  -55.0405 -21.895 -26.4409
LeftForeArm  34.482 -77.6292 -68.7658
LeftHand  -0.240474 0.6729 5.89591
RightShoulder  -0.00769431 0.343496 -9.98654
RightArm  -64.3019 30.7404 5.95102
RightForeArm  25.8945 77.6759 81.2773
RightHand  -0.382193 1.39168 -6.68887
LeftUpLeg  27.3855 11.3134 36.1531
LeftLeg  98.5825 4.32099 -23.2618
LeftFoot  -9.80229 0.123831 -8.23847
LeftToes  -2.21735e-009 9.83027e-011 -4.04511e-011
804
root  -14.3648 24.9616 1.24723 155.887 -59.9733 130.89
RightUpLeg  8.81339 22.8054 1.10307
RightLeg  99.8724 1.33977 -4.74764
RightFoot  -32.241 0.493327 3.86764
RightToes  3.49245e-010 0 -3.6325e-017
Spine  129.815 22.7748 2.98535
Spine1  2.0864 13.2087 13.416
HEad  -39.8857 -3.24521 -11.8259
LeftShoulder1  0.603649 -3.35908 -0.386279
LeftArm  -54.6064 -22.1599 -24.9379
LeftForeArm  30.3322 -77.3301 -65.9771
LeftHand  -0.260444 0.649128 6.36355
RightShoulder  -0.045969 0.303331 -11.1527
RightArm  -65.0749 31.3735 5.37564
RightForeArm  24.4694 77.6299 80.2218
RightHand  -0.375089 1.30622 -6.6384
LeftUpLeg  26.7084 11.1753 35.9289
LeftLeg  99.5322 4.61741 -22.6845
LeftFoot  -5.41361 0.228219 -3.35983
LeftToes  -2.21735e-009 9.83027e-011 -4.04511e-011
805
root  -14.7235 25.0042 1.34048 156.794 -57.8851 128.3
RightUpLeg  10.2126 25.0061 0.69458
RightLeg  100.613 1.4139 -4.7938
RightFoot  -32.0628 0.605104 4.50257
RightToes  3.49245e-010 0 -3.6325e-017
Spine  130.853 25.2502 3.13933
Spine1  1.1286 14.3899 13.3461
HEad  -37.4601 -3.74987 -12.5296
LeftShoulder1  0.630207 -3.76003 -0.267266
LeftArm  -53.9031 -21.4046 -24.1073
LeftForeArm  28.7842 -77.1898 -64.6539
LeftHand  -0.274147 0.276461 6.24887
RightShoulder  -0.0622647 0.212992 -11.6921
RightArm  -64.8294 30.5853 5.53731
RightForeArm  26.0259 77.6853 82.2189
RightHand  -0.329535 1.08392 -6.04202
LeftUpLeg  27.3514 11.8991 38.0088
LeftLeg  98.2412 3.74584 -21.1881
LeftFoot  -9.0649 0.12134 -3.04625
LeftToes  -2.21735e-009 9.83027e-011 -4.04511e-011
806
root  -15.0073 25.1558 1.60208 163.608 -63.4992 126.104
RightUpLeg  4.78589 19.8367 -7.7097
RightLeg  100.684 1.08269 -3.31553
RightFoot  -32.2204 0.597382 4.43325
RightToes  3.49245e-010 0 -3.6325e-017
Spine  126.726 17.2704 1.97234
Spine1  -0.755859 9.5242 12.0515
HEad  -35.6937 -3.69871 -12.6772
LeftShoulder1  0.616692 -3.88388 0.107514
LeftArm  -53.9549 -20.38 -23.0371
LeftForeArm  28.9307 -77.2436 -65.4219
LeftHand  -0.25978 0.34417 6.00093
RightShoulder  -0.057432 0.284771 -11.5078
RightArm  -65.4888 30.8264 5.15665
RightForeArm  23.884 77.6237 80.7154
RightHand  -0.317836 0.49917 -6.34366
LeftUpLeg  17.4445 12.9777 33.8011
LeftLeg  96.3988 2.33186 -17.0318
LeftFoot  -12.4961 0.0517395 -1.77065
LeftToes  -2.21735e-009 9.83027e-011 -4.04511e-011
807
root  -15.2012 24.8426 1.82296 160.803 -63.3523 126.687
RightUpLeg  6.16409 19.1146 -7.99075
RightLeg  101.821 1.37245 -4.16638
RightFoot  -32.0755 0.708632 5.06473
RightToes  3.49245e-010 0 -3.6325e-017
Spine  128.289 18.1251 2.54922
Spine1  -0.273204 10.278 12.4458
HEad  -34.671 -3.33492 -13.0707
LeftShoulder1  0.593201 -3.84774 0.428515
LeftArm  -54.8451 -20.0017 -22.176
LeftForeArm  29.3517 -77.3398 -66.8055
LeftHand  -0.253219 0.766964 6.32633
RightShoulder  -0.0842645 0.0855259 -12.4831
RightArm  -66.2927 30.4988 5.48129
RightForeArm  25.3985 77.6733 82.347
RightHand  -0.323258 0.574029 -6.37198
LeftUpLeg  18.0572 12.3238 35.516
LeftLeg  91.3982 0.654135 -15.4138
LeftFoot  -14.7535 0.0211673 -2.28359
LeftToes  -2.21735e-009 9.83027e-011 -4.04511e-011
808
root  -15.3698 24.2048 2.08872 156.738 -61.4495 129.985
RightUpLeg  4.65725 18.8117 -7.0075
RightLeg  104.276 2.10905 -5.98028
RightFoot  -32.2825 0.773384 5.3731
RightToes  3.49245e-010 0 -3.6325e-017
Spine  128.266 21.6252 2.87828
Spine1  0.786083 12.5728 13.1149
HEad  -33.9395 -2.93823 -13.4202
LeftShoulder1  0.518956 -3.64532 1.34454
LeftArm  -56.0924 -18.9409 -22.0162
LeftForeArm  30.841 -77.4925 -68.7215
LeftHand  -0.256097 0.702739 6.32458
RightShoulder  -0.117718 -0.0213547 -13.6619
RightArm  -67.5219 30.3339 5.31976
RightForeArm  23.5236 77.6105 80.6882
RightHand  -0.339678 1.37647 -5.98697
LeftUpLeg  18.8517 13.0672 38.9483
LeftLeg  86.6678 -0.625562 -15.0866
LeftFoot  -15.8316 -0.00894156 -2.64477
LeftToes  -2.21735e-009 9.83027e-011 -4.04511e-011
